<mxfile host="Electron" agent="Mozilla/5.0 (Macintosh; Intel Mac OS X 10_15_7) AppleWebKit/537.36 (KHTML, like Gecko) draw.io/26.0.4 Chrome/128.0.6613.186 Electron/32.2.5 Safari/537.36" version="26.0.4">
  <diagram name="Seite-1" id="RBNpjxJl_SiNE16JDTqy">
    <mxGraphModel dx="867" dy="613" grid="1" gridSize="10" guides="1" tooltips="1" connect="1" arrows="1" fold="1" page="1" pageScale="1" pageWidth="827" pageHeight="1169" math="0" shadow="0">
      <root>
        <mxCell id="0" />
        <mxCell id="1" parent="0" />
        <mxCell id="LtRF18KnijJm92M0xNn5-76" value="" style="rounded=0;whiteSpace=wrap;html=1;fillColor=#f5f5f5;fontColor=#333333;strokeColor=#666666;" vertex="1" parent="1">
          <mxGeometry x="450" y="140" width="260" height="280" as="geometry" />
        </mxCell>
        <mxCell id="LtRF18KnijJm92M0xNn5-153" style="edgeStyle=orthogonalEdgeStyle;rounded=0;orthogonalLoop=1;jettySize=auto;html=1;exitX=0.5;exitY=0;exitDx=0;exitDy=0;entryX=0.5;entryY=1;entryDx=0;entryDy=0;endSize=4;" edge="1" parent="1" source="LtRF18KnijJm92M0xNn5-70" target="LtRF18KnijJm92M0xNn5-135">
          <mxGeometry relative="1" as="geometry" />
        </mxCell>
        <mxCell id="LtRF18KnijJm92M0xNn5-150" style="edgeStyle=orthogonalEdgeStyle;rounded=0;orthogonalLoop=1;jettySize=auto;html=1;exitX=0.5;exitY=0;exitDx=0;exitDy=0;entryX=0.5;entryY=1;entryDx=0;entryDy=0;endSize=4;" edge="1" parent="1" source="LtRF18KnijJm92M0xNn5-69" target="LtRF18KnijJm92M0xNn5-117">
          <mxGeometry relative="1" as="geometry" />
        </mxCell>
        <mxCell id="LtRF18KnijJm92M0xNn5-75" value="" style="rounded=0;whiteSpace=wrap;html=1;fillColor=#f5f5f5;fontColor=#333333;strokeColor=#666666;verticalAlign=top;" vertex="1" parent="1">
          <mxGeometry x="120" y="140" width="260" height="280" as="geometry" />
        </mxCell>
        <mxCell id="LtRF18KnijJm92M0xNn5-148" style="edgeStyle=orthogonalEdgeStyle;rounded=0;orthogonalLoop=1;jettySize=auto;html=1;exitX=0.5;exitY=0;exitDx=0;exitDy=0;entryX=0.5;entryY=1;entryDx=0;entryDy=0;endSize=4;" edge="1" parent="1" source="LtRF18KnijJm92M0xNn5-5" target="LtRF18KnijJm92M0xNn5-104">
          <mxGeometry relative="1" as="geometry" />
        </mxCell>
        <mxCell id="LtRF18KnijJm92M0xNn5-147" style="edgeStyle=orthogonalEdgeStyle;rounded=0;orthogonalLoop=1;jettySize=auto;html=1;exitX=0.5;exitY=0;exitDx=0;exitDy=0;entryX=0.5;entryY=1;entryDx=0;entryDy=0;endSize=4;" edge="1" parent="1" source="LtRF18KnijJm92M0xNn5-6" target="LtRF18KnijJm92M0xNn5-98">
          <mxGeometry relative="1" as="geometry" />
        </mxCell>
        <mxCell id="LtRF18KnijJm92M0xNn5-146" style="edgeStyle=orthogonalEdgeStyle;rounded=0;orthogonalLoop=1;jettySize=auto;html=1;exitX=0.5;exitY=0;exitDx=0;exitDy=0;entryX=0.5;entryY=1;entryDx=0;entryDy=0;endSize=4;" edge="1" parent="1" source="LtRF18KnijJm92M0xNn5-4" target="LtRF18KnijJm92M0xNn5-92">
          <mxGeometry relative="1" as="geometry" />
        </mxCell>
        <mxCell id="LtRF18KnijJm92M0xNn5-145" style="edgeStyle=orthogonalEdgeStyle;rounded=0;orthogonalLoop=1;jettySize=auto;html=1;exitX=0.5;exitY=0;exitDx=0;exitDy=0;entryX=0.5;entryY=1;entryDx=0;entryDy=0;endSize=4;" edge="1" parent="1" source="LtRF18KnijJm92M0xNn5-3" target="LtRF18KnijJm92M0xNn5-86">
          <mxGeometry relative="1" as="geometry" />
        </mxCell>
        <mxCell id="LtRF18KnijJm92M0xNn5-144" style="edgeStyle=orthogonalEdgeStyle;rounded=0;orthogonalLoop=1;jettySize=auto;html=1;exitX=0.5;exitY=0;exitDx=0;exitDy=0;entryX=0.5;entryY=1;entryDx=0;entryDy=0;endSize=4;" edge="1" parent="1" source="LtRF18KnijJm92M0xNn5-2" target="LtRF18KnijJm92M0xNn5-80">
          <mxGeometry relative="1" as="geometry" />
        </mxCell>
        <mxCell id="LtRF18KnijJm92M0xNn5-1" value="Language model" style="rounded=1;whiteSpace=wrap;html=1;fillColor=#4C0099;fontColor=#FFFFFF;" vertex="1" parent="1">
          <mxGeometry x="130" y="300" width="240" height="60" as="geometry" />
        </mxCell>
        <mxCell id="LtRF18KnijJm92M0xNn5-2" value="token&lt;div&gt;1&lt;/div&gt;" style="rounded=1;whiteSpace=wrap;html=1;fillColor=#7EA6E0;fontColor=#FFFFFF;" vertex="1" parent="1">
          <mxGeometry x="130" y="380" width="40" height="30" as="geometry" />
        </mxCell>
        <mxCell id="LtRF18KnijJm92M0xNn5-3" value="token&lt;div&gt;2&lt;/div&gt;" style="rounded=1;whiteSpace=wrap;html=1;fillColor=#7EA6E0;fontColor=#FFFFFF;" vertex="1" parent="1">
          <mxGeometry x="180" y="380" width="40" height="30" as="geometry" />
        </mxCell>
        <mxCell id="LtRF18KnijJm92M0xNn5-4" value="token&lt;div&gt;3&lt;/div&gt;" style="rounded=1;whiteSpace=wrap;html=1;fillColor=#7EA6E0;fontColor=#FFFFFF;" vertex="1" parent="1">
          <mxGeometry x="230" y="380" width="40" height="30" as="geometry" />
        </mxCell>
        <mxCell id="LtRF18KnijJm92M0xNn5-5" value="token&lt;div&gt;5&lt;/div&gt;" style="rounded=1;whiteSpace=wrap;html=1;fillColor=#7EA6E0;fontColor=#FFFFFF;" vertex="1" parent="1">
          <mxGeometry x="330" y="380" width="40" height="30" as="geometry" />
        </mxCell>
        <mxCell id="LtRF18KnijJm92M0xNn5-6" value="token&lt;div&gt;4&lt;/div&gt;" style="rounded=1;whiteSpace=wrap;html=1;fillColor=#7EA6E0;fontColor=#FFFFFF;" vertex="1" parent="1">
          <mxGeometry x="280" y="380" width="40" height="30" as="geometry" />
        </mxCell>
        <mxCell id="LtRF18KnijJm92M0xNn5-12" value="latent&lt;div&gt;1-2&lt;/div&gt;" style="rounded=1;whiteSpace=wrap;html=1;fillColor=#FF8000;fontColor=#FFFFFF;" vertex="1" parent="1">
          <mxGeometry x="130" y="250" width="40" height="30" as="geometry" />
        </mxCell>
        <mxCell id="LtRF18KnijJm92M0xNn5-13" value="latent&lt;div&gt;2-3&lt;/div&gt;" style="rounded=1;whiteSpace=wrap;html=1;fillColor=#FF8000;fontColor=#FFFFFF;" vertex="1" parent="1">
          <mxGeometry x="180" y="250" width="40" height="30" as="geometry" />
        </mxCell>
        <mxCell id="LtRF18KnijJm92M0xNn5-14" value="latent&lt;div&gt;3-4&lt;/div&gt;" style="rounded=1;whiteSpace=wrap;html=1;fillColor=#FF8000;fontColor=#FFFFFF;" vertex="1" parent="1">
          <mxGeometry x="230" y="250" width="40" height="30" as="geometry" />
        </mxCell>
        <mxCell id="LtRF18KnijJm92M0xNn5-15" value="latent&lt;div&gt;5-6&lt;/div&gt;" style="rounded=1;whiteSpace=wrap;html=1;fillColor=#FF8000;fontColor=#FFFFFF;" vertex="1" parent="1">
          <mxGeometry x="330" y="250" width="40" height="30" as="geometry" />
        </mxCell>
        <mxCell id="LtRF18KnijJm92M0xNn5-16" value="latent&lt;div&gt;4-5&lt;/div&gt;" style="rounded=1;whiteSpace=wrap;html=1;fillColor=#FF8000;fontColor=#FFFFFF;" vertex="1" parent="1">
          <mxGeometry x="280" y="250" width="40" height="30" as="geometry" />
        </mxCell>
        <mxCell id="LtRF18KnijJm92M0xNn5-38" value="token&lt;div&gt;2&lt;/div&gt;" style="rounded=1;whiteSpace=wrap;html=1;fontColor=#FFFFFF;fillColor=#CC0000;" vertex="1" parent="1">
          <mxGeometry x="130" y="150" width="40" height="30" as="geometry" />
        </mxCell>
        <mxCell id="LtRF18KnijJm92M0xNn5-39" value="token&lt;div&gt;3&lt;/div&gt;" style="rounded=1;whiteSpace=wrap;html=1;fontColor=#FFFFFF;fillColor=#CC0000;" vertex="1" parent="1">
          <mxGeometry x="180" y="150" width="40" height="30" as="geometry" />
        </mxCell>
        <mxCell id="LtRF18KnijJm92M0xNn5-40" value="token&lt;div&gt;4&lt;/div&gt;" style="rounded=1;whiteSpace=wrap;html=1;fontColor=#FFFFFF;fillColor=#CC0000;" vertex="1" parent="1">
          <mxGeometry x="230" y="150" width="40" height="30" as="geometry" />
        </mxCell>
        <mxCell id="LtRF18KnijJm92M0xNn5-41" value="token&lt;div&gt;6&lt;/div&gt;" style="rounded=1;whiteSpace=wrap;html=1;fontColor=#FFFFFF;fillColor=#CC0000;" vertex="1" parent="1">
          <mxGeometry x="330" y="150" width="40" height="30" as="geometry" />
        </mxCell>
        <mxCell id="LtRF18KnijJm92M0xNn5-42" value="token&lt;div&gt;5&lt;/div&gt;" style="rounded=1;whiteSpace=wrap;html=1;fontColor=#FFFFFF;fillColor=#CC0000;" vertex="1" parent="1">
          <mxGeometry x="280" y="150" width="40" height="30" as="geometry" />
        </mxCell>
        <mxCell id="LtRF18KnijJm92M0xNn5-48" value="Language model" style="rounded=1;whiteSpace=wrap;html=1;fillColor=#4C0099;fontColor=#FFFFFF;" vertex="1" parent="1">
          <mxGeometry x="460" y="300" width="240" height="60" as="geometry" />
        </mxCell>
        <mxCell id="LtRF18KnijJm92M0xNn5-49" value="token&lt;div&gt;1&lt;/div&gt;" style="rounded=1;whiteSpace=wrap;html=1;fillColor=light-dark(#b3b3b3, #436697);fontColor=#FFFFFF;" vertex="1" parent="1">
          <mxGeometry x="460" y="380" width="40" height="30" as="geometry" />
        </mxCell>
        <mxCell id="LtRF18KnijJm92M0xNn5-51" value="token&lt;div&gt;3&lt;/div&gt;" style="rounded=1;whiteSpace=wrap;html=1;fillColor=light-dark(#b3b3b3, #436697);fontColor=#FFFFFF;" vertex="1" parent="1">
          <mxGeometry x="560" y="380" width="40" height="30" as="geometry" />
        </mxCell>
        <mxCell id="LtRF18KnijJm92M0xNn5-53" value="token&lt;div&gt;4&lt;/div&gt;" style="rounded=1;whiteSpace=wrap;html=1;fillColor=light-dark(#b3b3b3, #436697);fontColor=#FFFFFF;" vertex="1" parent="1">
          <mxGeometry x="610" y="380" width="40" height="30" as="geometry" />
        </mxCell>
        <mxCell id="LtRF18KnijJm92M0xNn5-59" value="latent&lt;div&gt;1-2&lt;/div&gt;" style="rounded=1;whiteSpace=wrap;html=1;fillColor=light-dark(#b3b3b3, #436697);fontColor=#FFFFFF;" vertex="1" parent="1">
          <mxGeometry x="460" y="250" width="40" height="30" as="geometry" />
        </mxCell>
        <mxCell id="LtRF18KnijJm92M0xNn5-60" value="new latent" style="rounded=1;whiteSpace=wrap;html=1;fillColor=#FF8000;fontColor=#FFFFFF;" vertex="1" parent="1">
          <mxGeometry x="510" y="250" width="40" height="30" as="geometry" />
        </mxCell>
        <mxCell id="LtRF18KnijJm92M0xNn5-61" value="latent&lt;div&gt;3-4&lt;/div&gt;" style="rounded=1;whiteSpace=wrap;html=1;fillColor=light-dark(#b3b3b3, #436697);fontColor=#FFFFFF;" vertex="1" parent="1">
          <mxGeometry x="560" y="250" width="40" height="30" as="geometry" />
        </mxCell>
        <mxCell id="LtRF18KnijJm92M0xNn5-62" value="new latent" style="rounded=1;whiteSpace=wrap;html=1;fillColor=#FF8000;fontColor=#FFFFFF;" vertex="1" parent="1">
          <mxGeometry x="660" y="250" width="40" height="30" as="geometry" />
        </mxCell>
        <mxCell id="LtRF18KnijJm92M0xNn5-63" value="latent&lt;div&gt;4-5&lt;/div&gt;" style="rounded=1;whiteSpace=wrap;html=1;fillColor=light-dark(#b3b3b3, #436697);fontColor=#FFFFFF;" vertex="1" parent="1">
          <mxGeometry x="610" y="250" width="40" height="30" as="geometry" />
        </mxCell>
        <mxCell id="LtRF18KnijJm92M0xNn5-64" value="token&lt;div&gt;2&lt;/div&gt;" style="rounded=1;whiteSpace=wrap;html=1;fontColor=#FFFFFF;fillColor=light-dark(#b3b3b3, #436697);" vertex="1" parent="1">
          <mxGeometry x="460" y="150" width="40" height="30" as="geometry" />
        </mxCell>
        <mxCell id="LtRF18KnijJm92M0xNn5-65" value="token&lt;div&gt;3&lt;/div&gt;" style="rounded=1;whiteSpace=wrap;html=1;fontColor=#FFFFFF;fillColor=#CC0000;" vertex="1" parent="1">
          <mxGeometry x="510" y="150" width="40" height="30" as="geometry" />
        </mxCell>
        <mxCell id="LtRF18KnijJm92M0xNn5-66" value="token&lt;div&gt;4&lt;/div&gt;" style="rounded=1;whiteSpace=wrap;html=1;fontColor=#FFFFFF;fillColor=light-dark(#b3b3b3, #436697);" vertex="1" parent="1">
          <mxGeometry x="560" y="150" width="40" height="30" as="geometry" />
        </mxCell>
        <mxCell id="LtRF18KnijJm92M0xNn5-67" value="token&lt;div&gt;6&lt;/div&gt;" style="rounded=1;whiteSpace=wrap;html=1;fontColor=#FFFFFF;fillColor=#CC0000;" vertex="1" parent="1">
          <mxGeometry x="660" y="150" width="40" height="30" as="geometry" />
        </mxCell>
        <mxCell id="LtRF18KnijJm92M0xNn5-68" value="token&lt;div&gt;5&lt;/div&gt;" style="rounded=1;whiteSpace=wrap;html=1;fontColor=#FFFFFF;fillColor=light-dark(#b3b3b3, #436697);" vertex="1" parent="1">
          <mxGeometry x="610" y="150" width="40" height="30" as="geometry" />
        </mxCell>
        <mxCell id="LtRF18KnijJm92M0xNn5-69" value="latent&lt;div&gt;1-2&lt;/div&gt;" style="rounded=1;whiteSpace=wrap;html=1;fillColor=#FF8000;fontColor=#FFFFFF;" vertex="1" parent="1">
          <mxGeometry x="510" y="380" width="40" height="30" as="geometry" />
        </mxCell>
        <mxCell id="LtRF18KnijJm92M0xNn5-70" value="latent&lt;div&gt;4-5&lt;/div&gt;" style="rounded=1;whiteSpace=wrap;html=1;fillColor=#FF8000;fontColor=#FFFFFF;" vertex="1" parent="1">
          <mxGeometry x="660" y="380" width="40" height="30" as="geometry" />
        </mxCell>
        <mxCell id="LtRF18KnijJm92M0xNn5-77" value="" style="endArrow=classic;html=1;rounded=0;entryX=-0.01;entryY=0.914;entryDx=0;entryDy=0;entryPerimeter=0;exitX=1.002;exitY=0.448;exitDx=0;exitDy=0;exitPerimeter=0;endSize=4;" edge="1" parent="1" source="LtRF18KnijJm92M0xNn5-75" target="LtRF18KnijJm92M0xNn5-76">
          <mxGeometry width="50" height="50" relative="1" as="geometry">
            <mxPoint x="382" y="264" as="sourcePoint" />
            <mxPoint x="380" y="150" as="targetPoint" />
            <Array as="points">
              <mxPoint x="420" y="265" />
              <mxPoint x="420" y="396" />
            </Array>
          </mxGeometry>
        </mxCell>
        <mxCell id="LtRF18KnijJm92M0xNn5-78" value="Stop&lt;div&gt;Grad&lt;/div&gt;" style="rounded=0;whiteSpace=wrap;html=1;fillColor=#000000;fontColor=#FFFFFF;" vertex="1" parent="1">
          <mxGeometry x="398" y="310" width="42" height="40" as="geometry" />
        </mxCell>
        <mxCell id="LtRF18KnijJm92M0xNn5-80" value="" style="rounded=1;whiteSpace=wrap;html=1;fillColor=light-dark(#666666, #535353);" vertex="1" parent="1">
          <mxGeometry x="130" y="200" width="40" height="30" as="geometry" />
        </mxCell>
        <mxCell id="LtRF18KnijJm92M0xNn5-81" value="" style="rounded=0;whiteSpace=wrap;html=1;" vertex="1" parent="1">
          <mxGeometry x="134" y="207" width="4" height="18" as="geometry" />
        </mxCell>
        <mxCell id="LtRF18KnijJm92M0xNn5-82" value="" style="rounded=0;whiteSpace=wrap;html=1;" vertex="1" parent="1">
          <mxGeometry x="141" y="218" width="4" height="7" as="geometry" />
        </mxCell>
        <mxCell id="LtRF18KnijJm92M0xNn5-83" value="" style="rounded=0;whiteSpace=wrap;html=1;" vertex="1" parent="1">
          <mxGeometry x="148" y="221" width="4" height="4" as="geometry" />
        </mxCell>
        <mxCell id="LtRF18KnijJm92M0xNn5-84" value="" style="rounded=0;whiteSpace=wrap;html=1;" vertex="1" parent="1">
          <mxGeometry x="162" y="224" width="4" height="1" as="geometry" />
        </mxCell>
        <mxCell id="LtRF18KnijJm92M0xNn5-85" value="" style="rounded=0;whiteSpace=wrap;html=1;" vertex="1" parent="1">
          <mxGeometry x="155" y="223" width="4" height="2" as="geometry" />
        </mxCell>
        <mxCell id="LtRF18KnijJm92M0xNn5-86" value="" style="rounded=1;whiteSpace=wrap;html=1;fillColor=light-dark(#666666, #535353);" vertex="1" parent="1">
          <mxGeometry x="180" y="200" width="40" height="30" as="geometry" />
        </mxCell>
        <mxCell id="LtRF18KnijJm92M0xNn5-87" value="" style="rounded=0;whiteSpace=wrap;html=1;" vertex="1" parent="1">
          <mxGeometry x="184" y="218" width="4" height="7" as="geometry" />
        </mxCell>
        <mxCell id="LtRF18KnijJm92M0xNn5-88" value="" style="rounded=0;whiteSpace=wrap;html=1;" vertex="1" parent="1">
          <mxGeometry x="191" y="219" width="4" height="6" as="geometry" />
        </mxCell>
        <mxCell id="LtRF18KnijJm92M0xNn5-89" value="" style="rounded=0;whiteSpace=wrap;html=1;" vertex="1" parent="1">
          <mxGeometry x="198" y="219" width="4" height="6" as="geometry" />
        </mxCell>
        <mxCell id="LtRF18KnijJm92M0xNn5-90" value="" style="rounded=0;whiteSpace=wrap;html=1;" vertex="1" parent="1">
          <mxGeometry x="212" y="222" width="4" height="3" as="geometry" />
        </mxCell>
        <mxCell id="LtRF18KnijJm92M0xNn5-91" value="" style="rounded=0;whiteSpace=wrap;html=1;" vertex="1" parent="1">
          <mxGeometry x="205" y="220" width="4" height="5" as="geometry" />
        </mxCell>
        <mxCell id="LtRF18KnijJm92M0xNn5-92" value="" style="rounded=1;whiteSpace=wrap;html=1;fillColor=light-dark(#666666, #535353);" vertex="1" parent="1">
          <mxGeometry x="230" y="200" width="40" height="30" as="geometry" />
        </mxCell>
        <mxCell id="LtRF18KnijJm92M0xNn5-93" value="" style="rounded=0;whiteSpace=wrap;html=1;" vertex="1" parent="1">
          <mxGeometry x="234" y="205" width="4" height="20" as="geometry" />
        </mxCell>
        <mxCell id="LtRF18KnijJm92M0xNn5-94" value="" style="rounded=0;whiteSpace=wrap;html=1;" vertex="1" parent="1">
          <mxGeometry x="241" y="222" width="4" height="3" as="geometry" />
        </mxCell>
        <mxCell id="LtRF18KnijJm92M0xNn5-95" value="" style="rounded=0;whiteSpace=wrap;html=1;" vertex="1" parent="1">
          <mxGeometry x="248" y="223" width="4" height="2" as="geometry" />
        </mxCell>
        <mxCell id="LtRF18KnijJm92M0xNn5-96" value="" style="rounded=0;whiteSpace=wrap;html=1;" vertex="1" parent="1">
          <mxGeometry x="262" y="224" width="4" height="1" as="geometry" />
        </mxCell>
        <mxCell id="LtRF18KnijJm92M0xNn5-97" value="" style="rounded=0;whiteSpace=wrap;html=1;" vertex="1" parent="1">
          <mxGeometry x="255" y="224" width="4" height="1" as="geometry" />
        </mxCell>
        <mxCell id="LtRF18KnijJm92M0xNn5-98" value="" style="rounded=1;whiteSpace=wrap;html=1;fillColor=light-dark(#666666, #535353);" vertex="1" parent="1">
          <mxGeometry x="280" y="200" width="40" height="30" as="geometry" />
        </mxCell>
        <mxCell id="LtRF18KnijJm92M0xNn5-99" value="" style="rounded=0;whiteSpace=wrap;html=1;" vertex="1" parent="1">
          <mxGeometry x="284" y="209" width="4" height="16" as="geometry" />
        </mxCell>
        <mxCell id="LtRF18KnijJm92M0xNn5-100" value="" style="rounded=0;whiteSpace=wrap;html=1;" vertex="1" parent="1">
          <mxGeometry x="291" y="216" width="4" height="9" as="geometry" />
        </mxCell>
        <mxCell id="LtRF18KnijJm92M0xNn5-101" value="" style="rounded=0;whiteSpace=wrap;html=1;" vertex="1" parent="1">
          <mxGeometry x="298" y="219" width="4" height="6" as="geometry" />
        </mxCell>
        <mxCell id="LtRF18KnijJm92M0xNn5-102" value="" style="rounded=0;whiteSpace=wrap;html=1;" vertex="1" parent="1">
          <mxGeometry x="312" y="222" width="4" height="3" as="geometry" />
        </mxCell>
        <mxCell id="LtRF18KnijJm92M0xNn5-103" value="" style="rounded=0;whiteSpace=wrap;html=1;" vertex="1" parent="1">
          <mxGeometry x="305" y="221" width="4" height="4" as="geometry" />
        </mxCell>
        <mxCell id="LtRF18KnijJm92M0xNn5-104" value="" style="rounded=1;whiteSpace=wrap;html=1;fillColor=light-dark(#666666, #535353);" vertex="1" parent="1">
          <mxGeometry x="330" y="200" width="40" height="30" as="geometry" />
        </mxCell>
        <mxCell id="LtRF18KnijJm92M0xNn5-105" value="" style="rounded=0;whiteSpace=wrap;html=1;" vertex="1" parent="1">
          <mxGeometry x="334" y="218" width="4" height="7" as="geometry" />
        </mxCell>
        <mxCell id="LtRF18KnijJm92M0xNn5-106" value="" style="rounded=0;whiteSpace=wrap;html=1;" vertex="1" parent="1">
          <mxGeometry x="341" y="219" width="4" height="6" as="geometry" />
        </mxCell>
        <mxCell id="LtRF18KnijJm92M0xNn5-107" value="" style="rounded=0;whiteSpace=wrap;html=1;" vertex="1" parent="1">
          <mxGeometry x="348" y="220" width="4" height="5" as="geometry" />
        </mxCell>
        <mxCell id="LtRF18KnijJm92M0xNn5-108" value="" style="rounded=0;whiteSpace=wrap;html=1;" vertex="1" parent="1">
          <mxGeometry x="362" y="221" width="4" height="4" as="geometry" />
        </mxCell>
        <mxCell id="LtRF18KnijJm92M0xNn5-109" value="" style="rounded=0;whiteSpace=wrap;html=1;" vertex="1" parent="1">
          <mxGeometry x="355" y="220" width="4" height="5" as="geometry" />
        </mxCell>
        <mxCell id="LtRF18KnijJm92M0xNn5-111" value="" style="rounded=1;whiteSpace=wrap;html=1;fillColor=light-dark(#b3b3b3, #535353);" vertex="1" parent="1">
          <mxGeometry x="460" y="200" width="40" height="30" as="geometry" />
        </mxCell>
        <mxCell id="LtRF18KnijJm92M0xNn5-112" value="" style="rounded=0;whiteSpace=wrap;html=1;" vertex="1" parent="1">
          <mxGeometry x="464" y="207" width="4" height="18" as="geometry" />
        </mxCell>
        <mxCell id="LtRF18KnijJm92M0xNn5-113" value="" style="rounded=0;whiteSpace=wrap;html=1;" vertex="1" parent="1">
          <mxGeometry x="471" y="218" width="4" height="7" as="geometry" />
        </mxCell>
        <mxCell id="LtRF18KnijJm92M0xNn5-114" value="" style="rounded=0;whiteSpace=wrap;html=1;" vertex="1" parent="1">
          <mxGeometry x="478" y="221" width="4" height="4" as="geometry" />
        </mxCell>
        <mxCell id="LtRF18KnijJm92M0xNn5-115" value="" style="rounded=0;whiteSpace=wrap;html=1;" vertex="1" parent="1">
          <mxGeometry x="492" y="224" width="4" height="1" as="geometry" />
        </mxCell>
        <mxCell id="LtRF18KnijJm92M0xNn5-116" value="" style="rounded=0;whiteSpace=wrap;html=1;" vertex="1" parent="1">
          <mxGeometry x="485" y="223" width="4" height="2" as="geometry" />
        </mxCell>
        <mxCell id="LtRF18KnijJm92M0xNn5-117" value="" style="rounded=1;whiteSpace=wrap;html=1;fillColor=light-dark(#666666, #535353);" vertex="1" parent="1">
          <mxGeometry x="510" y="200" width="40" height="30" as="geometry" />
        </mxCell>
        <mxCell id="LtRF18KnijJm92M0xNn5-118" value="" style="rounded=0;whiteSpace=wrap;html=1;" vertex="1" parent="1">
          <mxGeometry x="514" y="212" width="4" height="13" as="geometry" />
        </mxCell>
        <mxCell id="LtRF18KnijJm92M0xNn5-119" value="" style="rounded=0;whiteSpace=wrap;html=1;" vertex="1" parent="1">
          <mxGeometry x="521" y="218" width="4" height="7" as="geometry" />
        </mxCell>
        <mxCell id="LtRF18KnijJm92M0xNn5-120" value="" style="rounded=0;whiteSpace=wrap;html=1;" vertex="1" parent="1">
          <mxGeometry x="528" y="220" width="4" height="5" as="geometry" />
        </mxCell>
        <mxCell id="LtRF18KnijJm92M0xNn5-121" value="" style="rounded=0;whiteSpace=wrap;html=1;" vertex="1" parent="1">
          <mxGeometry x="542" y="224" width="4" height="1" as="geometry" />
        </mxCell>
        <mxCell id="LtRF18KnijJm92M0xNn5-122" value="" style="rounded=0;whiteSpace=wrap;html=1;" vertex="1" parent="1">
          <mxGeometry x="535" y="222" width="4" height="3" as="geometry" />
        </mxCell>
        <mxCell id="LtRF18KnijJm92M0xNn5-123" value="" style="rounded=1;whiteSpace=wrap;html=1;fillColor=light-dark(#b3b3b3, #535353);" vertex="1" parent="1">
          <mxGeometry x="560" y="200" width="40" height="30" as="geometry" />
        </mxCell>
        <mxCell id="LtRF18KnijJm92M0xNn5-124" value="" style="rounded=0;whiteSpace=wrap;html=1;" vertex="1" parent="1">
          <mxGeometry x="564" y="205" width="4" height="20" as="geometry" />
        </mxCell>
        <mxCell id="LtRF18KnijJm92M0xNn5-125" value="" style="rounded=0;whiteSpace=wrap;html=1;" vertex="1" parent="1">
          <mxGeometry x="571" y="222" width="4" height="3" as="geometry" />
        </mxCell>
        <mxCell id="LtRF18KnijJm92M0xNn5-126" value="" style="rounded=0;whiteSpace=wrap;html=1;" vertex="1" parent="1">
          <mxGeometry x="578" y="223" width="4" height="2" as="geometry" />
        </mxCell>
        <mxCell id="LtRF18KnijJm92M0xNn5-127" value="" style="rounded=0;whiteSpace=wrap;html=1;" vertex="1" parent="1">
          <mxGeometry x="592" y="224" width="4" height="1" as="geometry" />
        </mxCell>
        <mxCell id="LtRF18KnijJm92M0xNn5-128" value="" style="rounded=0;whiteSpace=wrap;html=1;" vertex="1" parent="1">
          <mxGeometry x="585" y="224" width="4" height="1" as="geometry" />
        </mxCell>
        <mxCell id="LtRF18KnijJm92M0xNn5-129" value="" style="rounded=1;whiteSpace=wrap;html=1;fillColor=light-dark(#b3b3b3, #535353);" vertex="1" parent="1">
          <mxGeometry x="610" y="200" width="40" height="30" as="geometry" />
        </mxCell>
        <mxCell id="LtRF18KnijJm92M0xNn5-130" value="" style="rounded=0;whiteSpace=wrap;html=1;" vertex="1" parent="1">
          <mxGeometry x="614" y="209" width="4" height="16" as="geometry" />
        </mxCell>
        <mxCell id="LtRF18KnijJm92M0xNn5-131" value="" style="rounded=0;whiteSpace=wrap;html=1;" vertex="1" parent="1">
          <mxGeometry x="621" y="216" width="4" height="9" as="geometry" />
        </mxCell>
        <mxCell id="LtRF18KnijJm92M0xNn5-132" value="" style="rounded=0;whiteSpace=wrap;html=1;" vertex="1" parent="1">
          <mxGeometry x="628" y="219" width="4" height="6" as="geometry" />
        </mxCell>
        <mxCell id="LtRF18KnijJm92M0xNn5-133" value="" style="rounded=0;whiteSpace=wrap;html=1;" vertex="1" parent="1">
          <mxGeometry x="642" y="222" width="4" height="3" as="geometry" />
        </mxCell>
        <mxCell id="LtRF18KnijJm92M0xNn5-134" value="" style="rounded=0;whiteSpace=wrap;html=1;" vertex="1" parent="1">
          <mxGeometry x="635" y="221" width="4" height="4" as="geometry" />
        </mxCell>
        <mxCell id="LtRF18KnijJm92M0xNn5-135" value="" style="rounded=1;whiteSpace=wrap;html=1;fillColor=light-dark(#666666, #535353);" vertex="1" parent="1">
          <mxGeometry x="660" y="200" width="40" height="30" as="geometry" />
        </mxCell>
        <mxCell id="LtRF18KnijJm92M0xNn5-136" value="" style="rounded=0;whiteSpace=wrap;html=1;" vertex="1" parent="1">
          <mxGeometry x="664" y="206" width="4" height="19" as="geometry" />
        </mxCell>
        <mxCell id="LtRF18KnijJm92M0xNn5-137" value="" style="rounded=0;whiteSpace=wrap;html=1;" vertex="1" parent="1">
          <mxGeometry x="671" y="217" width="4" height="8" as="geometry" />
        </mxCell>
        <mxCell id="LtRF18KnijJm92M0xNn5-138" value="" style="rounded=0;whiteSpace=wrap;html=1;" vertex="1" parent="1">
          <mxGeometry x="678" y="221" width="4" height="4" as="geometry" />
        </mxCell>
        <mxCell id="LtRF18KnijJm92M0xNn5-139" value="" style="rounded=0;whiteSpace=wrap;html=1;" vertex="1" parent="1">
          <mxGeometry x="692" y="223" width="4" height="2" as="geometry" />
        </mxCell>
        <mxCell id="LtRF18KnijJm92M0xNn5-140" value="" style="rounded=0;whiteSpace=wrap;html=1;" vertex="1" parent="1">
          <mxGeometry x="685" y="222" width="4" height="3" as="geometry" />
        </mxCell>
        <mxCell id="LtRF18KnijJm92M0xNn5-141" value="&lt;font style=&quot;font-size: 15px;&quot;&gt;STEP 1:&lt;/font&gt;&lt;div&gt;Regular next-token prediction on tokens&lt;/div&gt;" style="rounded=0;whiteSpace=wrap;html=1;fillColor=#f5f5f5;fontColor=#333333;strokeColor=#666666;verticalAlign=top;" vertex="1" parent="1">
          <mxGeometry x="120" y="80" width="260" height="60" as="geometry" />
        </mxCell>
        <mxCell id="LtRF18KnijJm92M0xNn5-142" value="&lt;font style=&quot;font-size: 15px;&quot;&gt;STEP 2:&lt;/font&gt;&lt;div&gt;Prediction on previous latents&lt;/div&gt;&lt;div&gt;at high-entropy positions&lt;/div&gt;" style="rounded=0;whiteSpace=wrap;html=1;fillColor=#f5f5f5;fontColor=#333333;strokeColor=#666666;verticalAlign=top;" vertex="1" parent="1">
          <mxGeometry x="450" y="80" width="260" height="60" as="geometry" />
        </mxCell>
        <mxCell id="LtRF18KnijJm92M0xNn5-154" value="" style="endArrow=classic;startArrow=classic;html=1;rounded=0;entryX=0.5;entryY=1;entryDx=0;entryDy=0;exitX=0.5;exitY=0;exitDx=0;exitDy=0;strokeWidth=1;endSize=4;startSize=4;" edge="1" parent="1" source="LtRF18KnijJm92M0xNn5-104" target="LtRF18KnijJm92M0xNn5-41">
          <mxGeometry width="50" height="50" relative="1" as="geometry">
            <mxPoint x="330" y="300" as="sourcePoint" />
            <mxPoint x="380" y="250" as="targetPoint" />
          </mxGeometry>
        </mxCell>
        <mxCell id="LtRF18KnijJm92M0xNn5-157" value="" style="endArrow=classic;startArrow=classic;html=1;rounded=0;entryX=0.5;entryY=1;entryDx=0;entryDy=0;exitX=0.5;exitY=0;exitDx=0;exitDy=0;strokeWidth=1;endSize=4;startSize=4;" edge="1" parent="1">
          <mxGeometry width="50" height="50" relative="1" as="geometry">
            <mxPoint x="299.88" y="200" as="sourcePoint" />
            <mxPoint x="299.88" y="180" as="targetPoint" />
          </mxGeometry>
        </mxCell>
        <mxCell id="LtRF18KnijJm92M0xNn5-158" value="" style="endArrow=classic;startArrow=classic;html=1;rounded=0;entryX=0.5;entryY=1;entryDx=0;entryDy=0;exitX=0.5;exitY=0;exitDx=0;exitDy=0;strokeWidth=1;endSize=4;startSize=4;" edge="1" parent="1">
          <mxGeometry width="50" height="50" relative="1" as="geometry">
            <mxPoint x="249.88" y="200" as="sourcePoint" />
            <mxPoint x="249.88" y="180" as="targetPoint" />
          </mxGeometry>
        </mxCell>
        <mxCell id="LtRF18KnijJm92M0xNn5-159" value="" style="endArrow=classic;startArrow=classic;html=1;rounded=0;entryX=0.5;entryY=1;entryDx=0;entryDy=0;exitX=0.5;exitY=0;exitDx=0;exitDy=0;strokeWidth=1;endSize=4;startSize=4;" edge="1" parent="1">
          <mxGeometry width="50" height="50" relative="1" as="geometry">
            <mxPoint x="199.88" y="200" as="sourcePoint" />
            <mxPoint x="199.88" y="180" as="targetPoint" />
          </mxGeometry>
        </mxCell>
        <mxCell id="LtRF18KnijJm92M0xNn5-160" value="" style="endArrow=classic;startArrow=classic;html=1;rounded=0;entryX=0.5;entryY=1;entryDx=0;entryDy=0;exitX=0.5;exitY=0;exitDx=0;exitDy=0;strokeWidth=1;endSize=4;startSize=4;" edge="1" parent="1">
          <mxGeometry width="50" height="50" relative="1" as="geometry">
            <mxPoint x="149.88" y="200" as="sourcePoint" />
            <mxPoint x="149.88" y="180" as="targetPoint" />
          </mxGeometry>
        </mxCell>
        <mxCell id="LtRF18KnijJm92M0xNn5-161" value="" style="endArrow=classic;startArrow=classic;html=1;rounded=0;entryX=0.5;entryY=1;entryDx=0;entryDy=0;exitX=0.5;exitY=0;exitDx=0;exitDy=0;strokeWidth=1;endSize=4;startSize=4;" edge="1" parent="1">
          <mxGeometry width="50" height="50" relative="1" as="geometry">
            <mxPoint x="529.86" y="200" as="sourcePoint" />
            <mxPoint x="529.86" y="180" as="targetPoint" />
          </mxGeometry>
        </mxCell>
        <mxCell id="LtRF18KnijJm92M0xNn5-162" value="" style="endArrow=classic;startArrow=classic;html=1;rounded=0;entryX=0.5;entryY=1;entryDx=0;entryDy=0;exitX=0.5;exitY=0;exitDx=0;exitDy=0;strokeWidth=1;endSize=4;startSize=4;" edge="1" parent="1">
          <mxGeometry width="50" height="50" relative="1" as="geometry">
            <mxPoint x="679.87" y="200" as="sourcePoint" />
            <mxPoint x="679.87" y="180" as="targetPoint" />
          </mxGeometry>
        </mxCell>
        <mxCell id="LtRF18KnijJm92M0xNn5-163" value="&lt;font style=&quot;font-size: 16px;&quot;&gt;COCONUT in pre-training&lt;/font&gt;" style="text;html=1;align=center;verticalAlign=middle;whiteSpace=wrap;rounded=0;" vertex="1" parent="1">
          <mxGeometry x="120" y="30" width="590" height="50" as="geometry" />
        </mxCell>
      </root>
    </mxGraphModel>
  </diagram>
</mxfile>
